<?xml version="1.0" encoding="UTF-8" standalone="no"?>
<svg xmlns:ffdec="https://www.free-decompiler.com/flash" xmlns:xlink="http://www.w3.org/1999/xlink" ffdec:objectType="frame" height="381.5px" width="772.8px" xmlns="http://www.w3.org/2000/svg">
  <g transform="matrix(1.0, 0.0, 0.0, 1.0, 1.0, -35.0)">
    <use ffdec:characterId="74" height="381.5" transform="matrix(1.0, 0.0, 0.0, 1.0, 0.0, 0.0)" width="772.8" xlink:href="#shape0"/>
  </g>
  <defs>
    <g id="shape0">
      <path d="M721.05 181.8 L721.35 181.85 767.7 182.1 770.45 182.15 771.8 183.5 771.8 242.7 Q762.6 245.0 738.85 245.0 L726.6 243.9 714.35 242.75 Q712.4 242.75 711.45 244.2 710.15 246.3 708.1 247.4 699.25 252.0 663.85 252.0 L657.85 251.95 656.6 251.5 Q641.4 246.0 636.8 245.55 L617.55 243.75 Q615.25 243.55 612.55 242.5 609.5 241.35 605.9 240.8 L597.7 238.85 596.1 237.5 595.65 237.15 595.2 237.75 Q594.5 238.5 593.25 238.5 L588.45 236.75 585.95 235.8 585.8 235.8 582.95 235.5 Q579.85 235.5 560.3 228.2 L554.3 225.95 551.85 225.6 544.55 224.25 542.75 223.2 Q539.15 221.25 536.85 221.0 L522.4 218.3 Q513.35 216.3 503.85 213.75 502.8 213.45 501.05 212.45 L494.65 211.9 Q489.6 211.5 487.5 210.05 485.75 208.85 481.75 207.8 480.75 207.5 480.2 207.05 479.2 206.4 478.8 205.55 467.4 203.7 461.8 201.8 455.1 199.45 453.4 195.7 450.7 194.9 449.15 192.25 447.85 190.0 447.85 188.1 447.85 181.7 458.0 171.85 467.45 162.7 480.35 155.55 485.65 152.6 490.25 150.75 490.35 152.2 491.1 153.35 492.7 155.85 496.75 156.15 497.75 157.6 499.4 158.2 499.6 159.05 500.1 159.95 L501.0 161.2 Q501.05 162.15 502.0 165.05 503.4 169.25 505.65 172.8 512.6 183.75 524.6 183.75 534.4 183.75 541.25 174.75 L543.4 171.6 Q546.85 173.3 552.35 174.8 L566.05 178.05 Q574.9 180.1 579.6 181.65 L604.2 191.15 Q620.55 197.55 624.3 197.55 L627.0 197.15 631.35 199.55 Q646.9 207.75 651.85 207.75 675.85 207.75 691.0 202.65 702.0 198.9 710.65 191.4 L717.05 185.35 721.05 181.8 M681.5 355.6 Q705.9 354.5 725.1 346.5 749.9 336.2 760.25 335.85 769.85 335.55 769.85 344.0 769.85 358.65 756.95 364.9 747.7 369.35 729.0 370.15 L701.95 371.3 Q690.25 372.9 691.85 379.75 692.85 384.2 689.15 391.05 686.8 395.4 683.8 398.4 L685.35 399.25 Q688.85 403.2 688.85 406.0 688.85 407.3 688.45 408.5 L687.95 409.65 Q686.95 411.7 685.1 412.75 681.5 414.75 677.5 416.5 L511.35 416.5 510.1 416.25 507.45 416.5 304.1 416.5 Q302.2 415.75 300.0 415.75 297.8 415.75 295.95 416.5 L119.15 416.5 119.0 415.1 Q119.0 411.3 123.9 408.5 125.75 407.45 128.3 406.55 L128.25 406.5 Q126.1 402.7 124.85 398.2 124.0 395.05 124.0 393.75 124.0 389.3 124.35 387.55 L116.55 374.6 96.9 374.15 Q48.55 373.05 27.1 370.7 16.35 369.55 9.9 367.85 L-1.0 368.4 -1.0 178.5 135.0 178.5 135.0 179.5 178.75 179.5 Q187.0 183.0 210.5 183.0 235.75 183.0 243.15 179.5 L265.9 179.5 271.15 186.25 Q283.25 201.9 285.5 206.4 298.05 212.9 304.25 216.75 L306.15 217.7 Q306.0 218.65 306.0 219.75 306.0 226.9 324.2 241.9 330.15 246.85 335.25 250.4 L341.85 252.0 Q350.05 254.25 353.25 256.95 354.85 258.25 356.7 260.3 L362.2 262.3 Q372.1 264.0 398.85 264.0 L430.2 285.15 Q464.25 307.25 478.85 312.0 494.35 317.0 518.95 329.2 527.8 333.6 534.3 337.4 L533.65 338.2 Q527.85 346.0 527.85 363.0 527.85 365.55 529.3 368.1 L528.3 368.2 Q528.85 370.6 528.85 373.0 L528.5 374.9 Q529.85 376.8 529.85 379.25 L529.8 380.15 529.85 381.25 Q529.85 382.9 529.35 384.2 536.35 386.0 540.85 386.0 584.95 386.0 595.8 381.65 600.2 379.9 601.8 376.6 603.05 372.45 604.1 370.0 600.05 368.0 598.75 365.5 597.85 363.9 597.85 361.0 597.85 357.5 601.55 354.1 605.2 350.8 609.9 349.9 615.05 348.9 618.7 351.65 622.95 354.9 623.85 362.75 623.55 367.0 627.65 375.15 631.8 383.5 631.85 387.05 L638.85 388.25 646.35 389.5 Q647.8 389.5 651.35 387.5 L654.85 388.0 Q658.6 388.0 661.1 385.95 L661.85 385.85 663.85 386.0 Q669.1 386.0 671.85 382.05 673.85 379.15 673.85 376.0 673.85 371.2 670.75 368.4 669.3 367.1 667.5 366.5 665.85 364.25 665.85 362.1 665.85 358.0 669.85 356.75 672.3 356.0 681.5 355.6 M449.95 93.5 L450.65 93.5 Q449.85 95.55 449.85 99.0 449.85 102.7 450.85 104.4 451.75 106.0 453.95 107.2 450.05 109.3 447.1 110.25 443.6 111.35 426.25 123.05 410.0 134.0 406.85 134.0 404.75 134.0 380.4 119.45 350.75 101.75 336.35 94.75 L315.45 84.9 Q304.55 79.7 298.9 76.1 284.0 66.7 284.0 54.6 284.0 45.85 288.25 41.5 294.7 35.0 311.85 35.0 332.05 35.0 361.75 39.75 391.8 44.55 419.4 52.25 436.75 57.1 449.95 62.3 L449.95 93.5 M585.45 230.7 L585.65 230.8 585.85 230.8 585.15 230.55 585.45 230.7 M254.0 373.85 L255.1 374.35 254.3 375.75 254.0 375.75 254.0 373.85 M188.2 379.55 L188.0 379.7 Q185.3 375.25 181.5 375.75 177.35 376.25 174.3 381.9 171.0 387.9 171.0 396.35 L171.25 400.75 Q171.55 404.9 172.35 408.5 L172.4 408.8 174.65 408.5 175.5 408.4 Q187.3 406.85 200.5 404.25 214.7 401.5 221.7 402.4 L225.15 395.65 Q227.0 391.3 227.0 389.5 227.0 384.25 219.8 380.15 212.95 376.3 204.0 375.85 194.35 375.4 188.2 379.55 M240.5 328.05 Q238.0 330.25 238.0 332.0 238.0 332.85 238.15 333.55 L237.45 335.6 Q236.2 337.25 235.2 339.35 233.0 343.85 233.0 348.0 L233.0 348.65 Q231.0 355.45 231.0 362.85 L231.0 373.6 Q231.85 384.0 236.0 384.0 L236.4 383.95 Q236.6 387.4 239.05 389.95 241.1 392.15 244.8 393.85 245.15 395.15 246.55 396.25 252.55 400.85 275.5 400.85 293.75 400.85 301.1 398.35 L311.25 397.5 Q312.65 396.6 313.75 395.3 314.7 394.1 315.0 393.0 315.65 391.0 315.9 388.5 L316.0 385.95 318.75 383.05 Q320.9 379.8 320.15 375.4 L319.1 371.1 319.95 367.15 321.15 365.3 Q322.0 363.5 322.0 360.25 322.0 354.1 320.25 348.9 L321.0 348.0 Q322.0 346.55 322.0 345.0 322.0 342.6 320.45 341.2 319.25 340.15 317.65 340.0 L318.0 338.0 Q318.0 330.0 305.35 324.75 293.75 319.9 277.5 319.55 260.85 319.2 249.65 323.85 L249.2 324.05 Q247.75 324.15 246.0 324.8 242.9 325.9 240.5 328.05 M250.65 189.2 L250.5 189.25 250.75 189.35 250.65 189.2" fill="#0000ff" fill-opacity="0.2509804" fill-rule="evenodd" stroke="none"/>
    </g>
  </defs>
<style>path,polygon,rect,circle,ellipse{fill:#22c55e!important;stroke:#14532d!important;stroke-width:1.5px!important} use{opacity:.82}</style></svg>
