<?xml version="1.0" encoding="UTF-8" standalone="no"?>
<svg xmlns:ffdec="https://www.free-decompiler.com/flash" xmlns:xlink="http://www.w3.org/1999/xlink" ffdec:objectType="frame" height="263.05px" width="678.55px" xmlns="http://www.w3.org/2000/svg">
  <g transform="matrix(1.0, 0.0, 0.0, 1.0, -71.4, -217.0)">
    <use ffdec:characterId="22" height="263.05" transform="matrix(1.0, 0.0, 0.0, 1.0, 0.0, 0.0)" width="678.55" xlink:href="#shape0"/>
  </g>
  <defs>
    <g id="shape0">
      <path d="M399.95 228.8 L527.95 231.0 527.25 258.05 Q532.55 263.05 554.3 256.1 L546.85 285.05 749.95 480.05 75.0 477.05 Q76.0 471.5 71.4 465.85 89.9 414.95 151.05 341.25 L156.55 340.0 175.8 340.0 175.8 283.45 Q200.5 263.1 228.1 243.7 255.7 224.25 296.65 231.55 L320.0 230.0 329.95 229.85 329.95 217.0 399.95 217.0 399.95 228.8" fill="#6633cc" fill-opacity="0.34509805" fill-rule="evenodd" stroke="none"/>
    </g>
  </defs>
<style>path,polygon,rect,circle,ellipse{fill:#22c55e!important;stroke:#14532d!important;stroke-width:1.5px!important} use{opacity:.82}</style></svg>
