<?xml version="1.0" encoding="UTF-8" standalone="no"?>
<svg xmlns:ffdec="https://www.free-decompiler.com/flash" xmlns:xlink="http://www.w3.org/1999/xlink" ffdec:objectType="frame" height="169.95px" width="773.0px" xmlns="http://www.w3.org/2000/svg">
  <g transform="matrix(1.0, 0.0, 0.0, 1.0, 2.0, -310.0)">
    <use ffdec:characterId="22" height="169.95" transform="matrix(1.0, 0.0, 0.0, 1.0, 0.0, 0.0)" width="773.0" xlink:href="#shape0"/>
  </g>
  <defs>
    <g id="shape0">
      <path d="M650.85 377.0 L651.85 377.05 Q655.0 377.35 657.35 379.1 661.05 379.7 663.75 381.95 665.4 383.35 666.2 385.05 L667.05 385.65 Q669.3 383.95 672.35 383.85 675.6 383.75 677.9 385.5 679.95 384.05 682.85 384.25 L683.05 384.3 685.85 383.85 Q689.55 383.75 692.05 385.75 693.55 386.95 694.25 388.7 L704.85 388.85 Q754.3 388.85 771.0 386.45 L771.0 479.95 0.0 479.95 0.0 352.1 -0.25 351.85 Q-2.0 350.1 -2.0 346.35 -2.0 341.7 1.1 339.55 5.2 336.7 14.25 338.75 57.0 338.3 86.05 338.75 L86.0 339.85 Q86.0 343.65 88.05 347.05 L92.5 353.15 Q99.0 362.0 99.0 375.1 99.0 377.35 97.8 384.2 96.8 390.05 97.3 393.4 98.95 403.9 117.0 408.85 L145.0 408.85 Q157.35 403.8 160.4 393.5 161.45 389.85 161.7 384.3 161.8 378.1 162.0 375.1 162.7 363.15 169.9 349.9 L171.95 346.75 173.25 346.75 187.0 345.0 185.5 372.5 259.85 381.1 260.2 381.6 268.7 385.5 268.75 385.4 Q269.65 384.65 275.6 382.15 281.0 379.85 283.45 379.0 L295.2 377.95 306.9 376.7 Q311.2 375.05 313.0 367.5 L322.0 370.7 330.95 374.0 336.9 365.45 Q344.75 354.6 354.2 343.5 380.65 312.55 396.95 310.0 413.35 309.3 439.3 339.6 445.8 347.2 456.5 360.55 L460.85 365.45 Q465.3 370.1 467.1 370.1 L472.0 370.2 483.45 369.65 Q490.95 368.75 494.05 371.0 510.3 367.9 559.75 374.55 553.3 366.65 560.25 370.0 567.8 373.6 569.75 374.0 L571.85 373.85 572.35 372.8 606.95 370.95 Q615.2 370.95 620.75 372.05 621.45 370.6 622.8 369.55 625.5 367.45 629.35 367.6 L630.65 367.7 632.85 367.6 636.5 368.2 Q638.45 367.45 640.85 367.5 644.95 367.55 647.75 369.9 650.85 372.5 650.85 376.85 L650.85 377.0 M341.15 360.95 L341.0 360.95 341.0 361.0 341.15 360.95 M567.8 385.95 L567.55 387.7 Q568.15 387.2 567.8 385.95" fill="#7f5bc8" fill-opacity="0.7058824" fill-rule="evenodd" stroke="none"/>
      <path d="M341.15 360.95 L341.0 361.0 341.0 360.95 341.15 360.95" fill="#6633cc" fill-opacity="0.7058824" fill-rule="evenodd" stroke="none"/>
    </g>
  </defs>
<style>path,polygon,rect,circle,ellipse{fill:#22c55e!important;stroke:#14532d!important;stroke-width:1.5px!important} use{opacity:.82}</style></svg>
